<svg width="24" height="25" viewBox="0 0 24 25" fill="none" xmlns="http://www.w3.org/2000/svg">
<rect x="1.5" y="2" width="21" height="21" rx="6" fill="#97A1AF"/>
<rect x="1.5" y="2" width="21" height="21" rx="6" fill="#97A1AF"/>
<rect x="1.5" y="2" width="21" height="21" rx="6" fill="#97A1AF"/>
<path d="M17.25 8.375C17.25 8.99632 16.7463 9.5 16.125 9.5C15.5037 9.5 15 8.99632 15 8.375C15 7.75368 15.5037 7.25 16.125 7.25C16.7463 7.25 17.25 7.75368 17.25 8.375Z" fill="white"/>
<path fill-rule="evenodd" clip-rule="evenodd" d="M12 16.25C14.0711 16.25 15.75 14.5711 15.75 12.5C15.75 10.4289 14.0711 8.75 12 8.75C9.92893 8.75 8.25 10.4289 8.25 12.5C8.25 14.5711 9.92893 16.25 12 16.25ZM12 14.75C13.2426 14.75 14.25 13.7426 14.25 12.5C14.25 11.2574 13.2426 10.25 12 10.25C10.7574 10.25 9.75 11.2574 9.75 12.5C9.75 13.7426 10.7574 14.75 12 14.75Z" fill="white"/>
<path fill-rule="evenodd" clip-rule="evenodd" d="M4.5 12.2C4.5 9.67976 4.5 8.41965 4.99047 7.45704C5.4219 6.61031 6.11031 5.9219 6.95704 5.49047C7.91965 5 9.17976 5 11.7 5H12.3C14.8202 5 16.0804 5 17.043 5.49047C17.8897 5.9219 18.5781 6.61031 19.0095 7.45704C19.5 8.41965 19.5 9.67976 19.5 12.2V12.8C19.5 15.3202 19.5 16.5804 19.0095 17.543C18.5781 18.3897 17.8897 19.0781 17.043 19.5095C16.0804 20 14.8202 20 12.3 20H11.7C9.17976 20 7.91965 20 6.95704 19.5095C6.11031 19.0781 5.4219 18.3897 4.99047 17.543C4.5 16.5804 4.5 15.3202 4.5 12.8V12.2ZM11.7 6.5H12.3C13.5849 6.5 14.4583 6.50117 15.1334 6.55633C15.7911 6.61006 16.1274 6.70745 16.362 6.82698C16.9265 7.1146 17.3854 7.57354 17.673 8.13803C17.7926 8.37263 17.8899 8.70893 17.9437 9.36656C17.9988 10.0417 18 10.9151 18 12.2V12.8C18 14.0849 17.9988 14.9583 17.9437 15.6334C17.8899 16.2911 17.7926 16.6274 17.673 16.862C17.3854 17.4265 16.9265 17.8854 16.362 18.173C16.1274 18.2926 15.7911 18.3899 15.1334 18.4437C14.4583 18.4988 13.5849 18.5 12.3 18.5H11.7C10.4151 18.5 9.54169 18.4988 8.86656 18.4437C8.20893 18.3899 7.87263 18.2926 7.63803 18.173C7.07354 17.8854 6.6146 17.4265 6.32698 16.862C6.20745 16.6274 6.11006 16.2911 6.05633 15.6334C6.00117 14.9583 6 14.0849 6 12.8V12.2C6 10.9151 6.00117 10.0417 6.05633 9.36656C6.11006 8.70893 6.20745 8.37263 6.32698 8.13803C6.6146 7.57354 7.07354 7.1146 7.63803 6.82698C7.87263 6.70745 8.20893 6.61006 8.86656 6.55633C9.54169 6.50117 10.4151 6.5 11.7 6.5Z" fill="white"/>
</svg>
